<svg xmlns="http://www.w3.org/2000/svg" viewBox="225 190 580 175">
  <path fill="#3b82f6" d="M608.005 225.146c5.017-.045 18.557-.655 22.695.837 2.991 2.444 17.884 56.226 21.572 63.539.409.81.109 1.825-.427 2.585-3.194 1.532-11.242.642-15.173.41-1.559-3.475-2.958-9.784-4.737-14.296-3.093-.567-20.314-.19-24.117-.152-1.339 3.569-2.66 10.195-3.911 14.437-2.932.199-13.033.528-15.452-.646-.223-6.287 15.474-53.825 17.782-63.658.212-.906 1.141-2.295 1.768-3.056M618.859 238.186c-1.912 6.982-5.608 20.026-6.882 26.835l9.648.024 6.27-.045c-1.811-5.081-6.645-24.823-9.036-26.814z"/>
  
  <path fill="#3b82f6" d="M660.807 224.925c16.975-.015 54.302-5.297 46.702 26.309-1.315 5.467-7.738 8.72-12.496 11.072 6.13 9.135 14.355 20.673 19.792 29.978-3.867.362-13.2.889-16.735.393-4.527-5.443-16.395-26.889-20.167-28.164-3.963 2.988-.602 20.332-2.434 27.471-1.888 1.489-12.525.726-15.571.646-1.011-21.146-.001-43.148-.129-64.364-.005-.907.649-2.491 1.038-3.341M678.299 237.714c-.559.207-1.511.406-1.632.804-1.159 3.815-.247 10.076-.218 14.095 3.712.023 10.073.391 13.404-.96 1.707-1.334 4.399-4.515 4.322-6.62-.29-7.972-11.437-7.519-15.876-7.319z"/>

  <path fill="#3b82f6" d="M233.026 199.197c8.228-.275 23.494-.486 31.577.078.682 6.359.265 18.855.259 25.618l.091 42.5c-.05 10.551-1.406 25.013 2.175 34.667 12.402 31.254 54.255 29.193 64.42-3.186 3.574-11.384-1.062-39.396 1.788-45.914 2.531-2.294 29.637-1.322 34.565-1.363.515 10.232.061 25.23.057 35.936.225 26.996-18.085 54.28-42.857 64.88a65.46 65.46 0 0 1-51.135.539 70.57 70.57 0 0 1-38.317-38.322c-2.921-6.922-4.583-14.13-5.281-21.603-.798-8.557-.83-89.461.464-92.256.499-1.078 1.152-1.138 2.194-1.574"/>
  <path fill="#3d3c3c" d="M284.036 199.07c3.494-.16 7.874-.173 11.351-.045 21.59.794 44.988-1.251 66.409.34 3.118 2.066 4.202 3.2 6.139 6.375.591 7.092.128 19.83.05 27.387-4.38 7.297-7.382 8.579-15.749 8.479-9.356-.112-18.695-.093-28.053-.436-.542.289-2.941 1.71-2.968 2.235-.507 9.995-.177 21.266-.124 31.22.127 13.778 1.963 30.717-13.199 36.542-22.083 8.484-32.599-8.433-31.801-28.144.988-24.382-.175-47.711.198-71.993.095-6.194 1.742-9.959 7.747-11.96"/>
  <path fill="#fafafa" d="M324.222 205.555c7.027.177 31.392-1.04 35.409 2.181 2.145 3.796.907 9.645 1.161 13.997.258 4.428.993 9.647-2.416 13.004-6.013.361-32.594 1.382-36.473-1.506-1.095-1.937-1.306-5.523-.985-7.712 1.092-7.462-2.727-14.303 3.304-19.964"/>
  <path fill="#3d3c3c" d="M346.263 218.71a5.053 5.053 0 1 1 3.228 9.577 5.053 5.053 0 0 1-3.228-9.577"/>
  <path fill="#fafafa" d="M347.426 220.736c1.587.269 1.81.757 2.48 2.005.058 1.836-.346 2.376-1.171 3.961-1.92-1.006-1.59-.5-2.588-2.195-.118-1.667.452-2.352 1.279-3.771"/>
  <path fill="#3d3c3c" d="M331.352 210.406a4.975 4.975 0 1 1 4.158 9.04 4.975 4.975 0 0 1-4.158-9.04"/>
  <path fill="#fafafa" d="M332.529 212.143c1.524.459 1.72.524 2.646 1.803.395 1.602-.027 2.411-.544 3.948-2.182-.56-1.524-.086-2.742-1.613-.323-1.676.117-2.503.64-4.138"/>
  <defs>
    <linearGradient id="a" x1="337.758" x2="342.509" y1="215.59" y2="222.568" gradientUnits="userSpaceOnUse">
      <stop offset="0" stop-color="#454043"/><stop offset="1" stop-color="#4e514e"/>
    </linearGradient>
  </defs>
  <path fill="url(#a)" d="M344.565 210.2c1.247.289 1.02.057 1.863.82-.65 3.798-7.574 13.872-10.1 17.223l-1.368-.046c-.421-2.63 7.532-14.568 9.605-17.997"/>
  <path fill="#fafafa" d="M286.217 241.496c32.103.802 27.783-5.69 27.906 27.934-.803.879-2.364 2.085-3.33 2.882-2.006.379-20.906.17-24.627.203-.858-.98-1.885-2.521-2.664-3.617.182-6.436-.208-12.861-.091-19.266.078-4.25-.104-5.351 2.806-8.136"/>
  <path fill="#3d3c3c" d="M292.789 249.446c2.525-.149 8.752-.108 8.046 4.037-.694 4.077-4.562 6.246-7.673 8.463 2.492-.096 6.47-.698 8.242 1.228l-.462.711c-2.06.963-4.736.617-7.067.52-1.499.128-2.066.31-3.398-.322-.873-3.906 6.814-6.745 7.429-11.436-3.462-2.049-3.787.833-6.704 1.101l-.408-1.089c.552-2.117.386-1.5 1.995-3.213"/>
  <path fill="#fafafa" d="M287.496 205.712c7.129.148 14.405-.268 21.514.015 1.289.2 2.997.346 3.667 1.612 1.359 2.664 1.792 7.099 1.538 10.13-.481 5.721 1.889 13.96-3.269 17.594-4.348.005-22.018.344-25.252-.504-3.748-3.114-2.118-19.707-1.776-24.682.149-2.163 1.57-3.452 3.578-4.165"/>
  <path fill="#3d3c3c" d="m292.84 217.683 1.846-.098c2.796-.139 6.55-.777 8.614 1.09.2 2.953-4.517 7.899-6.656 10.594-.512.186-1.252.136-1.836.148l-.517-.753c-.008-2.254 4.669-6.765 6.358-8.633-2.265-.164-5.541-.006-7.384-.918z"/>
  <path fill="#fafafa" d="M285.432 279.491c5.086-.219 23.768-.852 27.412.855.839.865 1.458 1.937 1.424 3.148-.248 8.877.344 12.203-5.602 18.856-11.585 9.465-24.756 2.028-25.44-12.123-.145-2.995.162-8.404 2.206-10.736"/>
  <path fill="#3d3c3c" d="M291.589 287.296c2.933.313 3.838 2.18 5.873 4.57 1.483-2.065 2.038-3.519 4.665-3.744l.423.877c-.226 1.857-1.969 3.622-3.202 5.144 1.776 2.225 4.275 4.259 3.289 7-2.86-.838-3.461-2.105-5.448-4.41-1.823 2.226-2.339 3.47-4.989 3.782l-.408-.894c.223-1.91 2.19-3.768 3.515-5.297-1.467-2.226-2.856-3.268-4.172-5.81z"/>
  <path fill="#3b82f6" d="M397.037 225.014c3.373-.001 11.428-.409 14.184.728 2.953 3.948.317 34.209.875 41.47.306 3.986 1.514 8.108 4.696 10.748 2.613 2.168 6.085 2.96 9.415 2.598 12.087-1.313 11.175-12.818 11.067-22.043-.06-5.14-1.672-29.5.963-32.668.458-.55 1.424-.79 2.114-.835 3.091-.204 9.665-.868 12.007 1.491 2.245 2.262 1.025 10.629.994 13.812-.026 10.259 1.087 22.396-.771 32.571-5.491 30.072-51.09 28.818-55.836-.639-.857-5.323-1.481-44.468.292-47.233"/>
  <path fill="#3b82f6" d="M542.918 225.35c1.356 14.622-1.653 33.601.989 47.727 1.543 8.253 20.599 12.581 23.624-2.011 2.054-9.904-1.936-37.783 1.048-44.627 1.872-2.031 12.877-1.98 14.893-.188.744 2.048.431 12.829.431 15.874-.029 15.301 3.505 34.676-9.143 45.53-17.439 14.965-44.72 5.723-47.498-17.673-.895-7.532.099-15.628-.157-23.213.113-4.967-1.284-18.409 1.362-21.732 4.888.197 9.438-.016 14.451.313"/>
  <path fill="#3b82f6" d="M467.125 225.071c3.411-.077 10.892-.618 13.791.667 1.408 2.997.655 24.507.682 29.737 8.078-10.198 15.964-20.001 23.865-30.362 3.627-.058 13.001-.855 15.499 1.105-.355 4.528-19.417 26.774-23.354 31.55 4.28 6.575 12.423 16.149 17.519 22.724 2.082 2.607 8.151 8.503 5.749 11.548-2.866 1.191-10.448.851-13.836.856-7.615-8.308-17.873-21.821-25.3-30.985-.391 10.246.35 20.648-.117 30.532-4.976.565-10.411.29-15.459.197-.311-2.47-.471-5.82-.436-8.308.268-18.727-.205-37.468.087-56.185.015-.952.805-2.28 1.31-3.076"/>
  <path fill="#3b82f6" d="M767.571 224.173c7.024-1.303 17.327 1.736 23.667 5.062.025 2.381.491 9.391-.905 10.963-3.716 1.689-14.472-3.606-19.877-3.054-3.739.381-9.101 1.737-7.687 7.219 2.208 8.563 20.686 7.149 26.498 14.082 3.358 4.007 5.365 5.703 5.647 11.377.943 15.807-10.591 23.363-24.87 23.966-9.606-.287-14.888-1.15-23.374-5.858.095-2.975-.656-10.623.898-12.661 3.161-1.109 10.921 2.841 15.022 3.888a36 36 0 0 0 8.915 1.117c4.449-.043 8.607-3.143 7.491-7.51-2.209-8.647-18.23-6.77-24.474-12.652-3.994-2.906-5.922-6.771-6.591-11.909-1.845-14.182 6.396-22.219 19.64-24.03"/>
  <path fill="#3b82f6" d="M723.069 225.137c10.02-.287 15.722-2.49 14.268 9.469-.881 7.242 1.938 56.006-1.743 58.048-4.681.186-9.324.043-14.005-.057-.386-3.617-.471-7.53-.439-11.171.155-17.647.174-35.3.319-52.943.014-1.634.651-2.16 1.6-3.346"/>
</svg>